<svg width="39" height="38" viewBox="0 0 39 38" fill="none" xmlns="http://www.w3.org/2000/svg">
<path d="M21.9375 17.8749H31.6875C32.136 17.8749 32.5 17.5109 32.5 17.0624C32.5 16.6139 32.136 16.25 31.6875 16.25H21.9375C21.489 16.25 21.125 16.614 21.125 17.0625C21.125 17.511 21.489 17.8749 21.9375 17.8749Z" fill="#6fb6d6"/>
<path d="M33.3125 19.5H20.3125C19.864 19.5 19.5 19.864 19.5 20.3125V30.0625C19.5 30.511 19.864 30.875 20.3125 30.875H33.3125C33.761 30.875 34.1251 30.511 34.1251 30.0625V20.3125C34.125 19.8639 33.761 19.5 33.3125 19.5ZM32.5 29.25H21.125V21.125H32.4999V29.25H32.5Z" fill="#6fb6d6"/>
<path d="M38.1874 17.8749C37.7389 17.8749 37.3749 18.239 37.3749 18.6875V17.0625C37.3749 14.8233 35.5517 13 33.3125 13H20.3125C18.0733 13 16.25 14.8233 16.25 17.0625V18.6875C16.25 18.239 15.886 17.8749 15.4375 17.8749C14.989 17.8749 14.625 18.239 14.625 18.6875V25.1874C14.625 25.6359 14.989 26 15.4375 26C15.886 26 16.25 25.6359 16.25 25.1874V34.9374C16.25 35.3859 16.6141 35.75 17.0626 35.75H17.8751C17.8751 36.6453 18.6047 37.3749 19.5001 37.3749H21.125C22.0204 37.3749 22.75 36.6453 22.75 35.75H30.875C30.875 36.6453 31.6047 37.3749 32.5 37.3749H34.125C35.0204 37.3749 35.7499 36.6453 35.7499 35.75H36.5625C37.011 35.75 37.375 35.3859 37.375 34.9374V25.1874C37.375 25.6359 37.739 26 38.1875 26C38.636 26 39 25.6359 39 25.1874V18.6875C39 18.239 38.6359 17.8749 38.1874 17.8749ZM35.7499 34.125H17.875V17.0625C17.875 15.7186 18.9686 14.625 20.3125 14.625H33.3125C34.6564 14.625 35.75 15.7186 35.75 17.0625V34.125H35.7499Z" fill="#6fb6d6"/>
<path d="M8.93747 32.4999H5.68752C4.34362 32.4999 3.25002 33.5935 3.25002 34.9374V36.5624C3.25002 37.0109 3.61405 37.3749 4.06255 37.3749C4.51105 37.3749 4.875 37.011 4.875 36.5625V35.7499H9.74999V36.5625C9.74999 37.011 10.114 37.375 10.5625 37.375C11.011 37.375 11.375 37.011 11.375 36.5625V34.9375C11.375 33.5936 10.2814 32.4999 8.93747 32.4999Z" fill="#6fb6d6"/>
<path d="M17.0625 11.375C17.511 11.375 17.875 11.0109 17.875 10.5624V8.93747C17.875 4.00885 13.8662 0 8.93754 0C4.00892 0 0 4.00885 0 8.93747V36.5625C0 37.011 0.364025 37.375 0.812525 37.375C1.26102 37.375 1.62505 37.011 1.62505 36.5625V19.1652L15.6471 11.375H17.0625ZM1.62497 8.93747C1.62497 4.90585 4.90585 1.62497 8.93747 1.62497C12.9691 1.62497 16.25 4.90585 16.25 8.93747V9.74999H1.62497V8.93747ZM1.62497 17.3062V11.375H12.3012L1.62497 17.3062Z" fill="#6fb6d6"/>
</svg>
