<svg width="250" height="250" viewBox="0 0 250 250" fill="none" xmlns="http://www.w3.org/2000/svg">
<g clip-path="url(#clip0_307_2)">
<path fill-rule="evenodd" clip-rule="evenodd" d="M197.26 198.076H187.308V213.749C187.312 215.219 187.027 216.677 186.469 218.038C185.911 219.398 185.091 220.635 184.055 221.678C183.02 222.721 181.79 223.549 180.434 224.117C179.079 224.684 177.626 224.977 176.157 224.982H169.588C166.634 224.969 163.806 223.788 161.717 221.696C159.629 219.606 158.45 216.772 158.437 213.815V198.142H91.0377V213.815C91.0248 216.78 89.8389 219.62 87.7399 221.714C85.6409 223.808 82.7994 224.982 79.8374 224.982H73.2683C70.3163 224.969 67.4893 223.788 65.4034 221.696C63.3177 219.604 62.1424 216.77 62.1337 213.815V198.142H53.7252C47.9115 198.043 45.1197 194.852 44.6927 189.441V61.3741C41.4081 61.7031 39.848 62.4596 39.0597 64.1371V100.73H31.9979C29.8781 100.726 27.8463 99.8805 26.3473 98.3794C24.8484 96.8784 24.0043 94.8436 24 92.7207V71.1103C24.0074 69.0279 24.8211 67.0295 26.2699 65.5357C27.7187 64.0419 29.6896 63.1691 31.768 63.101C32.4413 56.8185 35.1511 54.993 44.9062 54.5325C46.2967 43.5682 53.7581 35.4603 67.2904 30.2085C96.408 24.8634 151.654 24.3371 182.513 30.2085C196.111 35.4548 203.534 43.5628 204.88 54.5325C214.734 55.0259 217.378 56.8679 218.019 63.101C220.098 63.1691 222.068 64.0419 223.517 65.5357C224.965 67.0295 225.78 69.0279 225.787 71.1103V92.7207C225.782 94.8436 224.937 96.8784 223.44 98.3794C221.94 99.8805 219.909 100.726 217.789 100.73H210.727V64.0384C209.939 62.3938 208.313 61.6702 205.094 61.3577V188.126C205.094 195.461 202.729 197.994 197.244 197.994L197.26 198.076ZM50.4899 165.561L50.9498 154.559C51.2125 152.635 52.2307 151.779 54.0537 152.092C63.2583 157.013 72.0901 162.603 80.4779 168.818C82.268 170.002 81.5618 172.288 79.1969 171.86L54.3493 170.051C53.2728 169.896 52.2889 169.356 51.5792 168.531C50.8698 167.705 50.4829 166.65 50.4899 165.561ZM109.398 179.672H141.094C141.504 179.672 141.896 179.835 142.186 180.125C142.475 180.415 142.638 180.808 142.638 181.218V186.547C142.638 186.957 142.475 187.35 142.186 187.64C141.896 187.93 141.504 188.093 141.094 188.093H109.398C108.989 188.093 108.596 187.93 108.307 187.64C108.017 187.35 107.855 186.957 107.855 186.547V181.218C107.855 180.808 108.017 180.415 108.307 180.125C108.596 179.835 108.989 179.672 109.398 179.672ZM192.087 179.672C192.898 179.679 193.69 179.925 194.362 180.38C195.033 180.834 195.557 181.477 195.866 182.228C196.175 182.979 196.255 183.805 196.097 184.602C195.94 185.399 195.551 186.131 194.979 186.708C194.409 187.284 193.68 187.679 192.885 187.843C192.092 188.007 191.266 187.933 190.514 187.629C189.762 187.326 189.116 186.807 188.656 186.138C188.197 185.468 187.945 184.678 187.932 183.866C187.932 182.774 188.364 181.727 189.134 180.953C189.903 180.179 190.947 179.742 192.038 179.738L192.087 179.672ZM56.3528 179.672C57.1631 179.682 57.9526 179.931 58.6225 180.387C59.2924 180.844 59.813 181.488 60.1192 182.24C60.4257 182.991 60.504 183.816 60.3447 184.612C60.1854 185.407 59.7954 186.138 59.2235 186.713C58.6517 187.288 57.9232 187.682 57.1293 187.844C56.3354 188.007 55.5113 187.932 54.7598 187.628C54.0085 187.324 53.3631 186.805 52.9046 186.136C52.4459 185.467 52.1944 184.677 52.1815 183.866C52.1815 182.771 52.6157 181.721 53.3889 180.947C54.1619 180.173 55.2103 179.738 56.3036 179.738L56.3528 179.672ZM199.362 165.479L198.902 154.477C198.64 152.552 197.621 151.697 195.815 152.01C186.603 156.926 177.765 162.517 169.374 168.735C167.584 169.92 168.29 172.206 170.655 171.778L195.503 169.969C196.58 169.817 197.567 169.278 198.277 168.452C198.988 167.626 199.372 166.569 199.362 165.479ZM103.141 36.0304H146.662C147.366 36.0347 148.04 36.3168 148.538 36.8155C149.036 37.3143 149.318 37.9894 149.322 38.6947V45.7173C149.318 46.4225 149.036 47.0978 148.538 47.5964C148.04 48.0952 147.366 48.3773 146.662 48.3816H103.141C102.437 48.3773 101.763 48.0952 101.265 47.5964C100.767 47.0978 100.485 46.4225 100.481 45.7173V38.6947C100.485 37.9894 100.767 37.3143 101.265 36.8155C101.763 36.3168 102.437 36.0347 103.141 36.0304ZM57.3711 57.0817H191.841C192.711 57.0817 193.547 57.4282 194.163 58.0451C194.779 58.662 195.125 59.4986 195.125 60.3709V131.386C195.125 133.162 193.664 134.165 191.841 134.675C145.709 148.704 103.486 148.128 57.3711 134.675C55.5481 134.182 54.0865 133.195 54.0865 131.386V60.338C54.0865 59.4657 54.4325 58.6291 55.0486 58.0122C55.6646 57.3953 56.5 57.0488 57.3711 57.0488V57.0817Z" fill="#BB87FC"/>
</g>
<circle cx="125" cy="125" r="121.5" stroke="#BB87FC" stroke-width="7"/>
<defs>
<clipPath id="clip0_307_2">
<rect width="202" height="199" fill="white" transform="translate(24 26)"/>
</clipPath>
</defs>
</svg>
