<svg width="123" height="121" viewBox="0 0 123 121" fill="none" xmlns="http://www.w3.org/2000/svg">
<path fill-rule="evenodd" clip-rule="evenodd" d="M105.5 104.629H99.44V114.159C99.4426 115.053 99.2691 115.939 98.9293 116.767C98.5895 117.594 98.0901 118.346 97.4595 118.98C96.829 119.614 96.0798 120.118 95.2546 120.463C94.4293 120.808 93.5443 120.986 92.65 120.989H88.65C86.8516 120.981 85.1291 120.263 83.8575 118.991C82.5858 117.72 81.8679 115.997 81.86 114.199V104.669H40.82V114.199C40.8121 116.002 40.09 117.729 38.8119 119.002C37.5338 120.275 35.8036 120.989 34 120.989H30C28.2025 120.981 26.4811 120.263 25.211 118.991C23.941 117.719 23.2253 115.996 23.22 114.199V104.669H18.1C14.56 104.609 12.86 102.669 12.6 99.3789V21.5089C10.6 21.7089 9.65 22.1689 9.17 23.1889V45.4389H4.87C3.57921 45.4363 2.34204 44.9223 1.42931 44.0096C0.516579 43.0969 0.00264237 41.8597 0 40.5689L0 27.4289C0.00450103 26.1627 0.499974 24.9476 1.38216 24.0393C2.26435 23.131 3.46447 22.6003 4.73 22.5589C5.14 18.7389 6.79 17.6289 12.73 17.3489C13.5767 10.6822 18.12 5.75224 26.36 2.55891C44.09 -0.691094 77.73 -1.01109 96.52 2.55891C104.8 5.74891 109.32 10.6789 110.14 17.3489C116.14 17.6489 117.75 18.7689 118.14 22.5589C119.406 22.6003 120.606 23.131 121.488 24.0393C122.37 24.9476 122.866 26.1627 122.87 27.4289V40.5689C122.867 41.8597 122.353 43.0969 121.441 44.0096C120.528 44.9223 119.291 45.4363 118 45.4389H113.7V23.1289C113.22 22.1289 112.23 21.6889 110.27 21.4989V98.5789C110.27 103.039 108.83 104.579 105.49 104.579L105.5 104.629ZM16.13 84.8589L16.41 78.1689C16.57 76.9989 17.19 76.4789 18.3 76.6689C23.9048 79.6609 29.2826 83.06 34.39 86.8389C35.48 87.5589 35.05 88.9489 33.61 88.6889L18.48 87.5889C17.8245 87.4947 17.2254 87.1662 16.7933 86.6643C16.3613 86.1625 16.1257 85.5211 16.13 84.8589V84.8589ZM52 93.4389H71.3C71.5493 93.4389 71.7884 93.5379 71.9647 93.7142C72.141 93.8905 72.24 94.1296 72.24 94.3789V97.6189C72.24 97.8682 72.141 98.1073 71.9647 98.2836C71.7884 98.4599 71.5493 98.5589 71.3 98.5589H52C51.7507 98.5589 51.5116 98.4599 51.3353 98.2836C51.159 98.1073 51.06 97.8682 51.06 97.6189V94.3789C51.06 94.1296 51.159 93.8905 51.3353 93.7142C51.5116 93.5379 51.7507 93.4389 52 93.4389V93.4389ZM102.35 93.4389C102.844 93.4429 103.326 93.5925 103.735 93.869C104.144 94.1454 104.463 94.5365 104.651 94.9931C104.839 95.4498 104.888 95.9518 104.792 96.4362C104.696 96.9207 104.459 97.3661 104.111 97.7167C103.764 98.0672 103.32 98.3074 102.836 98.4071C102.353 98.5068 101.85 98.4616 101.392 98.2772C100.934 98.0928 100.541 97.7773 100.261 97.3702C99.9813 96.9632 99.8279 96.4827 99.82 95.9889C99.82 95.3249 100.083 94.688 100.552 94.2176C101.02 93.7472 101.656 93.4816 102.32 93.4789L102.35 93.4389ZM19.7 93.4389C20.1934 93.4449 20.6741 93.5961 21.082 93.8738C21.4899 94.1514 21.8069 94.5431 21.9934 94.9999C22.18 95.4567 22.2277 95.9584 22.1307 96.4422C22.0337 96.926 21.7962 97.3705 21.448 97.7201C21.0998 98.0697 20.6562 98.3089 20.1728 98.4078C19.6894 98.5067 19.1876 98.4609 18.73 98.2762C18.2725 98.0915 17.8795 97.776 17.6003 97.3692C17.321 96.9624 17.1679 96.4823 17.16 95.9889C17.16 95.3232 17.4244 94.6848 17.8952 94.2141C18.3659 93.7433 19.0043 93.4789 19.67 93.4789L19.7 93.4389ZM106.78 84.8089L106.5 78.1189C106.34 76.9489 105.72 76.4289 104.62 76.6189C99.0106 79.6085 93.6294 83.0077 88.52 86.7889C87.43 87.5089 87.86 88.8989 89.3 88.6389L104.43 87.5389C105.086 87.4467 105.687 87.1188 106.119 86.6165C106.552 86.1142 106.786 85.4717 106.78 84.8089ZM48.19 6.09891H74.69C75.1188 6.10153 75.5294 6.27305 75.8326 6.57629C76.1359 6.87953 76.3074 7.29006 76.31 7.71891V11.9889C76.3074 12.4177 76.1359 12.8283 75.8326 13.1315C75.5294 13.4348 75.1188 13.6063 74.69 13.6089H48.19C47.7612 13.6063 47.3506 13.4348 47.0474 13.1315C46.7441 12.8283 46.5726 12.4177 46.57 11.9889V7.71891C46.5726 7.29006 46.7441 6.87953 47.0474 6.57629C47.3506 6.27305 47.7612 6.10153 48.19 6.09891V6.09891ZM20.32 18.8989H102.2C102.73 18.8989 103.239 19.1096 103.614 19.4847C103.989 19.8598 104.2 20.3685 104.2 20.8989V64.0789C104.2 65.1589 103.31 65.7689 102.2 66.0789C74.11 74.6089 48.4 74.2589 20.32 66.0789C19.21 65.7789 18.32 65.1789 18.32 64.0789V20.8789C18.32 20.3485 18.5307 19.8398 18.9058 19.4647C19.2809 19.0896 19.7896 18.8789 20.32 18.8789V18.8989Z" fill="#BB87FC"/>
</svg>
